<mxfile host="app.diagrams.net" agent="Mozilla/5.0 (Windows NT 10.0; Win64; x64) AppleWebKit/537.36 (KHTML, like Gecko) Chrome/129.0.0.0 Safari/537.36" version="24.7.17">
  <diagram name="第 1 页" id="OI5aWRE519ntANXpXUNU">
    <mxGraphModel dx="114" dy="72" grid="1" gridSize="10" guides="1" tooltips="1" connect="1" arrows="1" fold="1" page="1" pageScale="1" pageWidth="827" pageHeight="1169" math="0" shadow="1">
      <root>
        <mxCell id="0" />
        <mxCell id="1" parent="0" />
        <mxCell id="CkRrRD3snoV_INp1DNTx-32" value="" style="whiteSpace=wrap;html=1;" vertex="1" parent="1">
          <mxGeometry x="120" y="30" width="690" height="530" as="geometry" />
        </mxCell>
        <mxCell id="CkRrRD3snoV_INp1DNTx-23" style="rounded=0;orthogonalLoop=1;jettySize=auto;html=1;entryX=0;entryY=0.5;entryDx=0;entryDy=0;endArrow=none;endFill=0;" edge="1" parent="1" source="CkRrRD3snoV_INp1DNTx-1" target="CkRrRD3snoV_INp1DNTx-3">
          <mxGeometry relative="1" as="geometry" />
        </mxCell>
        <mxCell id="CkRrRD3snoV_INp1DNTx-24" style="rounded=0;orthogonalLoop=1;jettySize=auto;html=1;entryX=0;entryY=0.5;entryDx=0;entryDy=0;endArrow=none;endFill=0;" edge="1" parent="1" source="CkRrRD3snoV_INp1DNTx-1" target="CkRrRD3snoV_INp1DNTx-6">
          <mxGeometry relative="1" as="geometry" />
        </mxCell>
        <mxCell id="CkRrRD3snoV_INp1DNTx-25" style="rounded=0;orthogonalLoop=1;jettySize=auto;html=1;entryX=0;entryY=0.5;entryDx=0;entryDy=0;endArrow=none;endFill=0;" edge="1" parent="1" source="CkRrRD3snoV_INp1DNTx-1" target="CkRrRD3snoV_INp1DNTx-16">
          <mxGeometry relative="1" as="geometry" />
        </mxCell>
        <mxCell id="CkRrRD3snoV_INp1DNTx-26" style="rounded=0;orthogonalLoop=1;jettySize=auto;html=1;exitX=1;exitY=1;exitDx=0;exitDy=0;exitPerimeter=0;entryX=0;entryY=0.5;entryDx=0;entryDy=0;endArrow=none;endFill=0;" edge="1" parent="1" source="CkRrRD3snoV_INp1DNTx-1" target="CkRrRD3snoV_INp1DNTx-17">
          <mxGeometry relative="1" as="geometry" />
        </mxCell>
        <mxCell id="CkRrRD3snoV_INp1DNTx-1" value="User" style="shape=umlActor;verticalLabelPosition=bottom;verticalAlign=top;html=1;outlineConnect=0;" vertex="1" parent="1">
          <mxGeometry x="30" y="265" width="30" height="60" as="geometry" />
        </mxCell>
        <mxCell id="CkRrRD3snoV_INp1DNTx-8" style="rounded=0;orthogonalLoop=1;jettySize=auto;html=1;exitX=1;exitY=0.5;exitDx=0;exitDy=0;dashed=1;endArrow=open;endFill=0;endSize=10;" edge="1" parent="1" source="CkRrRD3snoV_INp1DNTx-3" target="CkRrRD3snoV_INp1DNTx-4">
          <mxGeometry relative="1" as="geometry" />
        </mxCell>
        <mxCell id="CkRrRD3snoV_INp1DNTx-9" value="&amp;lt;&amp;lt;include&amp;gt;&amp;gt;" style="edgeLabel;html=1;align=center;verticalAlign=middle;resizable=0;points=[];" vertex="1" connectable="0" parent="CkRrRD3snoV_INp1DNTx-8">
          <mxGeometry x="-0.4" y="1" relative="1" as="geometry">
            <mxPoint x="28" y="9" as="offset" />
          </mxGeometry>
        </mxCell>
        <mxCell id="CkRrRD3snoV_INp1DNTx-10" style="rounded=0;orthogonalLoop=1;jettySize=auto;html=1;entryX=0.5;entryY=0;entryDx=0;entryDy=0;endArrow=open;endFill=0;dashed=1;endSize=10;" edge="1" parent="1" source="CkRrRD3snoV_INp1DNTx-3" target="CkRrRD3snoV_INp1DNTx-5">
          <mxGeometry relative="1" as="geometry" />
        </mxCell>
        <mxCell id="CkRrRD3snoV_INp1DNTx-11" value="&amp;lt;&amp;lt;include&amp;gt;&amp;gt;" style="edgeLabel;html=1;align=center;verticalAlign=middle;resizable=0;points=[];" vertex="1" connectable="0" parent="CkRrRD3snoV_INp1DNTx-10">
          <mxGeometry x="-0.1635" relative="1" as="geometry">
            <mxPoint x="28" y="-8" as="offset" />
          </mxGeometry>
        </mxCell>
        <mxCell id="CkRrRD3snoV_INp1DNTx-28" style="rounded=0;orthogonalLoop=1;jettySize=auto;html=1;exitX=1;exitY=0.5;exitDx=0;exitDy=0;entryX=0;entryY=0.5;entryDx=0;entryDy=0;endSize=10;endArrow=open;endFill=0;dashed=1;" edge="1" parent="1" source="CkRrRD3snoV_INp1DNTx-3" target="CkRrRD3snoV_INp1DNTx-27">
          <mxGeometry relative="1" as="geometry" />
        </mxCell>
        <mxCell id="CkRrRD3snoV_INp1DNTx-29" value="&amp;lt;&amp;lt;include&amp;gt;&amp;gt;" style="edgeLabel;html=1;align=center;verticalAlign=middle;resizable=0;points=[];rotation=0;" vertex="1" connectable="0" parent="CkRrRD3snoV_INp1DNTx-28">
          <mxGeometry x="-0.1078" y="1" relative="1" as="geometry">
            <mxPoint x="8" y="-17" as="offset" />
          </mxGeometry>
        </mxCell>
        <mxCell id="CkRrRD3snoV_INp1DNTx-3" value="Register" style="ellipse;whiteSpace=wrap;html=1;" vertex="1" parent="1">
          <mxGeometry x="150" y="45" width="150" height="50" as="geometry" />
        </mxCell>
        <mxCell id="CkRrRD3snoV_INp1DNTx-4" value="Set personal info" style="ellipse;whiteSpace=wrap;html=1;" vertex="1" parent="1">
          <mxGeometry x="640" y="45" width="150" height="50" as="geometry" />
        </mxCell>
        <mxCell id="CkRrRD3snoV_INp1DNTx-5" value="Set user password" style="ellipse;whiteSpace=wrap;html=1;" vertex="1" parent="1">
          <mxGeometry x="650" y="360" width="150" height="50" as="geometry" />
        </mxCell>
        <mxCell id="CkRrRD3snoV_INp1DNTx-12" style="rounded=0;orthogonalLoop=1;jettySize=auto;html=1;entryX=0.5;entryY=1;entryDx=0;entryDy=0;endSize=10;endArrow=open;endFill=0;dashed=1;" edge="1" parent="1" source="CkRrRD3snoV_INp1DNTx-6" target="CkRrRD3snoV_INp1DNTx-4">
          <mxGeometry relative="1" as="geometry" />
        </mxCell>
        <mxCell id="CkRrRD3snoV_INp1DNTx-14" value="&amp;lt;&amp;lt;extend&amp;gt;&amp;gt;" style="edgeLabel;html=1;align=center;verticalAlign=middle;resizable=0;points=[];" vertex="1" connectable="0" parent="CkRrRD3snoV_INp1DNTx-12">
          <mxGeometry x="-0.1405" y="1" relative="1" as="geometry">
            <mxPoint x="-56" y="-1" as="offset" />
          </mxGeometry>
        </mxCell>
        <mxCell id="CkRrRD3snoV_INp1DNTx-13" style="rounded=0;orthogonalLoop=1;jettySize=auto;html=1;exitX=1;exitY=0.5;exitDx=0;exitDy=0;endSize=10;endArrow=open;endFill=0;dashed=1;" edge="1" parent="1" source="CkRrRD3snoV_INp1DNTx-6" target="CkRrRD3snoV_INp1DNTx-5">
          <mxGeometry relative="1" as="geometry" />
        </mxCell>
        <mxCell id="CkRrRD3snoV_INp1DNTx-15" value="&amp;lt;&amp;lt;extend&amp;gt;&amp;gt;" style="edgeLabel;html=1;align=center;verticalAlign=middle;resizable=0;points=[];" vertex="1" connectable="0" parent="CkRrRD3snoV_INp1DNTx-13">
          <mxGeometry x="0.0905" y="2" relative="1" as="geometry">
            <mxPoint x="-46" y="-33" as="offset" />
          </mxGeometry>
        </mxCell>
        <mxCell id="CkRrRD3snoV_INp1DNTx-6" value="Login" style="ellipse;whiteSpace=wrap;html=1;" vertex="1" parent="1">
          <mxGeometry x="150" y="195" width="150" height="50" as="geometry" />
        </mxCell>
        <mxCell id="CkRrRD3snoV_INp1DNTx-20" style="rounded=0;orthogonalLoop=1;jettySize=auto;html=1;exitX=0.5;exitY=1;exitDx=0;exitDy=0;entryX=0;entryY=0.5;entryDx=0;entryDy=0;endSize=10;dashed=1;endArrow=open;endFill=0;" edge="1" parent="1" source="CkRrRD3snoV_INp1DNTx-16" target="CkRrRD3snoV_INp1DNTx-5">
          <mxGeometry relative="1" as="geometry" />
        </mxCell>
        <mxCell id="CkRrRD3snoV_INp1DNTx-21" value="&amp;lt;&amp;lt;include&amp;gt;&amp;gt;" style="edgeLabel;html=1;align=center;verticalAlign=middle;resizable=0;points=[];" vertex="1" connectable="0" parent="CkRrRD3snoV_INp1DNTx-20">
          <mxGeometry x="-0.2154" y="-2" relative="1" as="geometry">
            <mxPoint x="15" y="-12" as="offset" />
          </mxGeometry>
        </mxCell>
        <mxCell id="CkRrRD3snoV_INp1DNTx-30" style="rounded=0;orthogonalLoop=1;jettySize=auto;html=1;exitX=1;exitY=1;exitDx=0;exitDy=0;entryX=0.5;entryY=1;entryDx=0;entryDy=0;dashed=1;endSize=10;endArrow=open;endFill=0;" edge="1" parent="1" source="CkRrRD3snoV_INp1DNTx-16" target="CkRrRD3snoV_INp1DNTx-27">
          <mxGeometry relative="1" as="geometry" />
        </mxCell>
        <mxCell id="CkRrRD3snoV_INp1DNTx-31" value="&amp;lt;&amp;lt;include&amp;gt;&amp;gt;" style="edgeLabel;html=1;align=center;verticalAlign=middle;resizable=0;points=[];" vertex="1" connectable="0" parent="CkRrRD3snoV_INp1DNTx-30">
          <mxGeometry x="0.0993" y="-3" relative="1" as="geometry">
            <mxPoint x="-105" y="8" as="offset" />
          </mxGeometry>
        </mxCell>
        <mxCell id="CkRrRD3snoV_INp1DNTx-16" value="Reset Password" style="ellipse;whiteSpace=wrap;html=1;" vertex="1" parent="1">
          <mxGeometry x="150" y="335" width="150" height="50" as="geometry" />
        </mxCell>
        <mxCell id="CkRrRD3snoV_INp1DNTx-18" style="edgeStyle=entityRelationEdgeStyle;rounded=0;orthogonalLoop=1;jettySize=auto;html=1;entryX=0.5;entryY=1;entryDx=0;entryDy=0;endSize=15;endArrow=open;endFill=0;dashed=1;" edge="1" parent="1" source="CkRrRD3snoV_INp1DNTx-17" target="CkRrRD3snoV_INp1DNTx-6">
          <mxGeometry relative="1" as="geometry">
            <Array as="points">
              <mxPoint x="350" y="385" />
            </Array>
          </mxGeometry>
        </mxCell>
        <mxCell id="CkRrRD3snoV_INp1DNTx-19" value="&amp;lt;&amp;lt;include&amp;gt;&amp;gt;" style="edgeLabel;html=1;align=center;verticalAlign=middle;resizable=0;points=[];" vertex="1" connectable="0" parent="CkRrRD3snoV_INp1DNTx-18">
          <mxGeometry x="-0.0746" relative="1" as="geometry">
            <mxPoint x="30" y="39" as="offset" />
          </mxGeometry>
        </mxCell>
        <mxCell id="CkRrRD3snoV_INp1DNTx-17" value="Delete Account" style="ellipse;whiteSpace=wrap;html=1;" vertex="1" parent="1">
          <mxGeometry x="150" y="505" width="150" height="50" as="geometry" />
        </mxCell>
        <mxCell id="CkRrRD3snoV_INp1DNTx-27" value="Verify personal info" style="ellipse;whiteSpace=wrap;html=1;" vertex="1" parent="1">
          <mxGeometry x="640" y="185" width="150" height="50" as="geometry" />
        </mxCell>
      </root>
    </mxGraphModel>
  </diagram>
</mxfile>
